<?xml version="1.0" encoding="utf-8"?>
<!-- Generator: Adobe Illustrator 29.8.1, SVG Export Plug-In . SVG Version: 9.03 Build 0)  -->
<svg version="1.0"
	 id="svg2" xmlns:svg="http://www.w3.org/2000/svg" xmlns:inkscape="http://www.inkscape.org/namespaces/inkscape" xmlns:cc="http://creativecommons.org/ns#" xmlns:dc="http://purl.org/dc/elements/1.1/" xmlns:sodipodi="http://sodipodi.sourceforge.net/DTD/sodipodi-0.dtd" xmlns:rdf="http://www.w3.org/1999/02/22-rdf-syntax-ns#"
	 xmlns="http://www.w3.org/2000/svg" xmlns:xlink="http://www.w3.org/1999/xlink" x="0px" y="0px" viewBox="0 0 830.74 471.04"
	 style="enable-background:new 0 0 830.74 471.04;" xml:space="preserve">
<sodipodi:namedview  bordercolor="#000000" borderopacity="0.42352941" fit-margin-bottom="0" fit-margin-left="0" fit-margin-right="0" fit-margin-top="0" id="base" inkscape:current-layer="layer1" inkscape:cx="519.64169" inkscape:cy="211.8814" inkscape:document-units="px" inkscape:guide-bbox="true" inkscape:pageopacity="0" inkscape:pageshadow="2" inkscape:snap-bbox="true" inkscape:snap-nodes="false" inkscape:window-height="977" inkscape:window-maximized="0" inkscape:window-width="1280" inkscape:window-x="223" inkscape:window-y="87" inkscape:zoom="0.75008394" pagecolor="#000000" showgrid="false" showguides="true" width="1920px">
	</sodipodi:namedview>
<g id="layer1" transform="translate(-575.9205,293.4934)" inkscape:groupmode="layer" inkscape:label="Ebene 1">
	<g id="g4038" transform="translate(0,21.835049)">
		<path id="path3143" inkscape:connector-curvature="0" d="M1300.43-202.08c2.21-2.66-2.03-6.1-22.33-18.11
			c-25.96-15.37-33.34-18-33.34-11.92c0,3,46.81,33.31,51.45,33.31C1297.03-198.8,1298.93-200.28,1300.43-202.08z M663.02-183.09
			c0-0.52-2.05-7.74-4.56-16.06c-2.51-8.32-6.85-23.69-9.64-34.16c-4.72-17.7-20.46-48.77-26.64-52.59
			c-1.98-1.22-2.35,5.27-1.41,24.27c1.69,34.05,7.47,49.94,24.38,66.98C655.62-184.07,663.02-179.29,663.02-183.09z M695.43-188.07
			c5.76-22.05-1.4-49.87-20.05-77.97l-11.17-16.82l-0.72,16.46c-0.4,9.05,0.46,21.27,1.91,27.16c2.28,9.26,16.81,56.7,20.34,66.42
			C687.77-167.23,691.53-173.15,695.43-188.07L695.43-188.07z M665.4-167.49c0-1.1-2.94-3.26-6.54-4.8l-6.54-2.8l5.62,4.8
			C664.12-165,665.4-164.52,665.4-167.49L665.4-167.49z M677.29-125.12c0-6.5-12.81-26.49-22.35-34.89
			c-10.83-9.54-55.36-33.25-57.82-30.79c-3.96,3.96,30.61,48.7,44.23,57.25C656.48-124.06,677.29-119.17,677.29-125.12
			L677.29-125.12z M1078.8-116.14c5.17-4.08,3.32-8.88-3.57-9.26c-18.71-1.03-29.15,2.53-29.15,9.92c0,4.26,1.21,4.52,14.87,3.16
			C1069.13-113.13,1077.16-114.86,1078.8-116.14L1078.8-116.14z M732.05-138.76c6.28-16.77,6.2-41.69-0.19-64.85
			c-2.7-9.79-5.74-18.64-6.75-19.67c-1.01-1.03-4.15,6.11-6.98,15.85c-4.4,15.14-5.14,23.57-5.05,57.78l0.1,40.06l7.07-8.28
			C724.14-122.41,729.45-131.82,732.05-138.76L732.05-138.76z M703.44-144.67l-0.03-33.9l-6.11,10.71
			c-3.36,5.89-7.55,12.31-9.32,14.28c-2.73,3.04-1.95,6.52,5.23,23.2c4.65,10.79,8.86,19.62,9.35,19.62
			C703.06-110.77,703.45-126.03,703.44-144.67L703.44-144.67z M1167.53-103.83c3.45-6.45,1.86-7.75-7.08-5.78
			c-10.4,2.28-9.3,9.85,1.53,10.56C1163.58-98.96,1166.07-101.1,1167.53-103.83L1167.53-103.83z M727.04-94.28
			c3.19-15.54,3.66-21.16,1.56-18.28c-1.67,2.28-6.79,7.13-11.38,10.78l-8.34,6.62l5.64,12.79c3.1,7.03,6.15,12.28,6.78,11.66
			C721.93-71.34,724.51-81.94,727.04-94.28L727.04-94.28z M703.46-67.3c1.8-1.68-20.75-21.47-31.93-28.02
			c-5.41-3.17-19.98-8.38-32.38-11.58c-43.36-11.18-43.73-10.97-18.37,10.49c19.02,16.1,39.88,27.76,54.99,30.74
			C684.96-63.85,700.76-64.78,703.46-67.3z M742.2-69.37c12.22-11.58,20.28-28.43,23.5-49.14c2.88-18.49,0.88-50.42-3-48.02
			c-6.8,4.2-18.71,35.65-25.61,67.65c-4.09,18.97-7.44,35.3-7.44,36.28C729.64-59,733.4-61.03,742.2-69.37z M755.15-65.91
			c-0.29-0.84-5.7,3.04-12.03,8.62l-11.49,10.16l6.54,12.79l6.54,12.79l5.49-21.41C753.21-54.74,755.44-65.06,755.15-65.91z
			 M764.83-22.6c4.86-2.55,11.97-7.21,15.81-10.36l6.98-5.73l0.31-33.06c0.17-18.19,1.14-36.81,2.15-41.39
			c1.69-7.62,1.18-7.21-5.9,4.76c-10.25,17.31-17.38,35.88-23.54,61.26c-2.78,11.45-5.61,22.7-6.29,24.99
			C752.78-16.87,753.98-16.92,764.83-22.6L764.83-22.6z M712.88-18.57c5.73-2.94,10.51-6.32,10.62-7.51
			c0.41-4.52-49.38-17.31-93.79-24.09L619-51.8l7.04,7.45c9.51,10.06,29.5,23.6,40.81,27.63C681.34-11.56,700.74-12.34,712.88-18.57
			L712.88-18.57z M735.73-3.11c-6.97-12.87-6.84-12.81-16.84-7.71c-5.11,2.61-10.85,4.74-12.76,4.74c-7.34,0,0.69,3.69,13.57,6.24
			C740.28,4.23,739.76,4.33,735.73-3.11L735.73-3.11z M779.17,11.17c1.61-6.22,5.19-16.96,7.94-23.88
			c5.4-13.56,4.58-17.85-2.24-11.68c-2.35,2.13-10.39,6.95-17.86,10.72l-13.58,6.85l9.46,14.64c5.21,8.05,10.34,14.64,11.4,14.64
			C775.36,22.47,777.55,17.39,779.17,11.17z M808.15,20.98c0-1.47-2.8-8.97-6.22-16.65c-7.1-15.95-6.81-16.22-15.1,13.67
			l-4.37,15.75l12.84-5.04C802.36,25.93,808.15,22.46,808.15,20.98z M733.01,35.55c7.27-3.68,14.86-8.49,16.85-10.7
			c3.32-3.67,2.86-4.35-5.32-7.93c-4.92-2.16-15.38-5.62-23.23-7.7c-15.95-4.22-74.17-7.35-88.13-4.73l-9.03,1.69l10.51,9.37
			c10.12,9.02,32.65,22.15,45.01,26.24C691.89,45.83,718.96,42.66,733.01,35.55L733.01,35.55z M765.54,41.91
			c-5.39-10.06-8.62-10.51-20.67-2.87l-11.41,7.23h17.2C766.61,46.26,767.7,45.94,765.54,41.91z M814.08,32.02
			c1.33-2.16-21.37,7.48-24.14,10.25c-0.71,0.71-0.59,2.45,0.28,3.85C791.73,48.57,810.82,37.29,814.08,32.02z M825.59,53.73
			c4.18-1.65,4.17-1.95-0.31-7.47l-4.66-5.76l-8.54,5.85c-7.11,4.87-7.85,6.12-4.45,7.47C812.93,55.93,820.12,55.89,825.59,53.73z
			 M744.32,89.31c6.11-3.09,16.7-11.29,23.54-18.21l12.43-12.59l-9.27-1.96c-20.69-4.37-66.55,1.07-107.73,12.77
			c-14.3,4.07-14.43,3.83,8.05,15.46c20.12,10.41,23.93,11.34,44.02,10.71C728.59,95.08,736.08,93.48,744.32,89.31z M920.88-134.52
			c-4.69-1.89-4.88-2.89-2.66-14.12c2.6-13.14,3.9-14.24,9.41-7.92C941.41-140.77,937.45-127.83,920.88-134.52z M1052.35,70.57
			c-1.97-3.18,3.38-23.84,6.94-26.79c2.72-2.26,3.84-1.57,5.79,3.56c3.35,8.8,3.03,13.63-1.29,19.8
			C1060.09,72.43,1054.53,74.1,1052.35,70.57z M1036.98,117.86c7.05-2.19,9.07-4.21,10.41-10.39c0.91-4.22,3.52-10.35,5.79-13.62
			c3.27-4.72,50.93-86.99,85.03-146.8l5.7-9.99l-9.64-6.38c-8.41-5.57-11.14-6.18-21.45-4.81c-10.95,1.45-12.11,1.11-15.92-4.71
			c-3.92-5.98-4.78-6.2-18.38-4.66c-7.85,0.89-17.95,3.5-22.45,5.81l-8.18,4.2l10.99,9.01c11.59,9.49,13.14,14.37,8.49,26.61
			l-2.5,6.58l-5.23-6.5c-3.35-4.17-8.44-7.02-14.15-7.93c-11.07-1.77-11.37,0.73-1.78,14.66c8.21,11.93,9.91,29.23,3.41,34.63
			c-7.35,6.1-10.55,16.23-10.63,33.66c-0.14,29.78-8.44,57.71-19.16,64.45c-5.39,3.39-20.18,0.02-26.98-6.14
			c-6.36-5.76-26.19-49.93-28.81-64.18c-2.01-10.92-9.43-17.22-22.8-19.36c-23.8-3.81-40.85-38.86-29.54-60.73
			c1.91-3.7,5.22-7.4,7.34-8.21c2.12-0.81,22.77-3.12,45.89-5.12c23.12-2,44.44-4.16,47.39-4.8c6.39-1.39,7.2-9.36,1.59-15.56
			c-2.97-3.28-3.2-5.2-1.08-9.16c2.03-3.79,1.93-6.57-0.42-11.5c-2.61-5.48-4.81-6.61-14-7.21c-15.23-0.99-18.31,3.15-11.81,15.9
			c7.02,13.76,6.45,16.93-3.03,16.93c-8.07,0-11.13-3.32-14.64-15.89c-1.25-4.48-2.64-5-10.26-3.83
			c-9.46,1.45-14.76,4.52-14.76,8.53c0,11.07-26.31,15.82-35.69,6.44c-8.86-8.86-4.96-15.34,17.38-28.84
			c6.55-3.96,12.66-9.84,14.32-13.79c2.84-6.74,3.06-6.82,10.85-3.54c9.78,4.11,38.67,4.45,42.62,0.49
			c5.59-5.6,3.32-17.19-4.88-24.87c-19.33-18.12-25.58-18.25-25.58-0.57c0,7.89-0.98,11.64-3.06,11.64
			c-1.68,0-8.52-5.62-15.21-12.49l-12.15-12.49l1.7-12.53c1.4-10.29,3.27-13.96,10.45-20.54c4.87-4.46,8.75-10.28,8.75-13.12
			c0-5.2,0.97-5.85,12.45-8.36c5.22-1.14,8.37,0.27,15.98,7.15c8.04,7.26,10.59,8.32,16.75,6.97c6.98-1.53,41.9-25.6,55.19-38.04
			c3.62-3.39,9.29-6.01,13.09-6.05c10.78-0.12,1.61-4.14-24.6-10.79c-47.49-12.05-97.43-6.03-141.3,17.03
			c-19.84,10.42-49.51,34.64-44.74,36.51c1.87,0.73,7.36,4.55,12.22,8.47c11.01,8.9,12.08,19.57,2.88,28.77
			c-4.98,4.98-7.33,5.69-14.47,4.35c-7.77-1.46-9.44-0.7-18.84,8.53l-10.32,10.13l1.35,35.03c0.98,25.48,0.59,35.5-1.44,36.75
			c-1.53,0.95-8.65,2.33-15.81,3.07l-13.03,1.34l0.14,9.78c0.08,5.38,0.89,13.99,1.8,19.14l1.66,9.36l6.37-7.58
			c3.51-4.17,7.44-7.58,8.73-7.58s5.58,3.91,9.52,8.69c9.39,11.39,13.35,28.22,11.03,46.93c-2.52,20.35-2.29,23.43,2.45,33.42
			c2.84,5.99,8.07,11.05,16.33,15.78c6.68,3.83,11.08,6.99,9.77,7.01c-1.31,0.03,3.51,2.78,10.71,6.13
			c16.77,7.79,23.26,13.99,26.24,25.05c2.2,8.16,3.69,9.38,18.41,14.97c29.55,11.23,42.12,13.26,76.69,12.35
			C1013.78,120.96,1032.17,119.35,1036.98,117.86L1036.98,117.86z M778.18,111.25c12.05-13.94,20.92-32,17.44-35.49
			c-1.98-1.98-22.54,12.56-26.61,18.82c-1.86,2.87-6.55,13.46-10.42,23.54l-7.03,18.32l6.71-4.96
			C761.95,128.76,770.91,119.65,778.18,111.25z M1116.92,89.09c83.5-145.21,158.78-275.61,161.55-279.85
			c3.13-4.79,2.42-5.56-14.02-15.22c-9.53-5.6-18.02-10.55-18.87-11.02c-1.41-0.76-21.21,32.62-80.67,135.96
			c-11.29,19.63-39.08,67.81-61.74,107.07s-42.63,74.06-44.37,77.33c-6.51,12.22-2,31.22,9.01,37.91l6.83,4.15l10.54-9.73
			C1092.04,129.36,1103.11,113.11,1116.92,89.09L1116.92,89.09z M739.64,152.73c-1.77-2.14,0.4-10.89,7.67-30.93
			c5.58-15.37,9.73-27.95,9.22-27.95c-0.51,0-5.43,2.35-10.94,5.22c-8.19,4.26-14.15,5.24-32.62,5.34
			c-21.44,0.12-23.52-0.33-40.45-8.74c-23.61-11.74-42.35-25.58-37.85-27.96c1.84-0.97,14.05-4.19,27.14-7.15
			c13.09-2.96,24.66-6.17,25.73-7.13c1.06-0.96-2.62-2.47-8.18-3.36c-15.63-2.5-37.15-15.28-55.54-33
			c-19.02-18.32-18.66-20.5,3.49-20.96c7.2-0.15,18.71-0.97,25.59-1.82l12.5-1.55l-15.8-8.16c-10.58-5.47-22.42-14.78-35.85-28.21
			c-11.02-11.02-19.71-20.35-19.3-20.72c1.85-1.68,95.17,15.77,115.65,21.63c5.43,1.55,5.44,1.52,1.62-6.48l-3.84-8.04h-21.85
			c-20.95,0-22.58-0.39-39.59-9.52c-12.77-6.85-25.06-16.66-43.87-35.04c-14.37-14.04-25.64-26.01-25.04-26.61
			c1.8-1.8,66.52,12.32,81.9,17.87c7.85,2.83,16.95,6.97,20.22,9.21c11.05,7.54,11.37,7.39,7.44-3.54l-3.83-10.65h-13.79
			c-30.33,0-57.66-24.93-85.44-77.92c-4.97-9.49-8.61-17.25-8.07-17.25c4.14,0,54.55,23.36,67.25,31.17
			c8.82,5.42,8.73,5.23-3.17-6.72c-20.35-20.43-29.32-45.76-29.36-82.98c-0.02-19.99,2.65-43.77,4.92-43.77
			c2.49,0,35.42,53.17,38.02,61.39c1.2,3.79,1.45-6.47,0.61-25.11c-0.78-17.34-0.85-31.53-0.16-31.53
			c2.02,0,34.01,43.22,38.59,52.14c6.88,13.39,13.16,33.71,13.24,42.81c0.1,11.64,2.88,6.29,9.46-18.22
			c2.9-10.8,6.14-19.63,7.21-19.63c2.12,0,14.31,30.38,19.09,47.59c1.64,5.89,3.64,18.2,4.45,27.36l1.47,16.66l9.68-18.82
			c5.32-10.35,10.27-17.85,11.01-16.66c3.62,5.89,9.34,55.28,7.94,68.58c-1.77,16.79-2.13,17.15,16.95-16.95
			c7.47-13.36,14.06-23.82,14.63-23.25c0.57,0.57,4.9-5.5,9.62-13.5c17.99-30.53,51.78-61.1,84.93-76.83
			c33.21-15.76,49.67-19.18,91.38-18.98c33.68,0.16,38.63,0.76,57.1,6.82c36.05,11.84,58.68,25.61,85.25,51.87
			c17.42,17.22,33.19,39.93,43.48,62.62c3.97,8.76,8.05,14.99,9.05,13.84c1.01-1.15,12.11-20,24.68-41.88
			c19.94-34.72,22.68-40.82,21.53-47.95c-1.13-6.93-0.39-8.78,4.9-12.24c5.9-3.86,9.26-3.87,18.55-0.03
			c2.94,1.21,5.01-0.3,7.79-5.68c3.38-6.53,4.95-7.33,14.44-7.33c13.59,0,13.68-2.42,0.99-27.05
			c-11.97-23.24-11.94-30.87,0.14-32.05c18.69-1.83,31.29,3.64,75.65,32.81c23.59,15.51,44.72,31,46.95,34.4
			c5.02,7.66,3.44,9.94-16.18,23.26c-7.65,5.2-13.55,10.17-13.09,11.05c11.08,21.67,18.49,37.82,18.49,40.31
			c0,7.62-11.12,14.27-28.76,17.21c-9.7,1.62-18.54,3.47-19.64,4.12c-1.1,0.65,1.73,5.08,6.28,9.83
			c12.9,13.47,16.92,23.18,17.03,41.17c0.09,13.59-0.72,16.74-5.67,22.01c-4.94,5.26-7.79,6.15-19.77,6.15
			c-7.7,0-18.86-1.23-24.81-2.72c-8.85-2.23-11.2-2.12-12.93,0.59c-1.16,1.82-1.57,4.79-0.91,6.59c2.05,5.58,4.28,51.93,2.7,56.07
			c-2.7,7.03-10.11,0.02-15.66-14.82c-2.87-7.67-9.46-20.21-14.66-27.85c-11.85-17.46-13.36-23.38-8.53-33.5
			c5.33-11.17,23.37-19.96,44.64-21.74c9.03-0.76,17.48-2.65,18.77-4.21c1.66-2-1.16-7.36-9.5-18.09
			c-14.45-18.6-18.19-28.37-14.39-37.55c3.38-8.17,12.63-13.75,28.39-17.13c16.26-3.49,15.85-9.18-1.49-21.05
			c-4.25-2.91-7.73-7.14-7.73-9.4s4.28-8.3,9.52-13.41c12.34-12.05,12.45-18.78,0.49-30.45c-4.96-4.85-10.2-8.81-11.64-8.81
			c-2.48,0-5.86,39.84-5.67,66.89c0.08,11.57-3.9,17.5-12.84,19.13c-3.12,0.57-7.93,7.36-14.45,20.42
			c-5.38,10.76-11.39,21.46-13.35,23.78c-1.97,2.32-16.22,26.17-31.67,52.99c-141.16,245.07-132.5,230.83-144.24,237.11
			c-11.21,5.99-25.47,7.22-33.86,2.91c-9.19-4.72-18.01-14.46-19.58-21.63c-1.08-4.91-2.59-6.57-5.11-5.6
			c-10.41,3.99-40.54,6.54-63.78,5.39c-50-2.48-92.18-20.38-129.04-54.76c-15.77-14.71-16.33-15-27.4-14.03
			c-6.22,0.54-11.3,1.7-11.3,2.57c0,0.87,5.41,8.27,12.02,16.44c15.06,18.61,29.79,26.71,48.57,26.71c8.28,0,13.17,1.01,13.17,2.72
			c0,1.49-2.22,10.16-4.93,19.27c-4.26,14.31-5.57,16.38-9.66,15.31c-11.68-3.06-42.48-23.12-55.86-36.39l-14.67-14.56l-5.07,9.02
			c-4.83,8.59-48.73,52.23-52.54,52.23C742.93,155.71,741,154.37,739.64,152.73z"/>
	</g>
</g>
</svg>
