<?xml version="1.0" encoding="UTF-8" standalone="no"?>
<svg xmlns:dc="http://purl.org/dc/elements/1.1/" xmlns:cc="http://creativecommons.org/ns#" xmlns:rdf="http://www.w3.org/1999/02/22-rdf-syntax-ns#" xmlns:svg="http://www.w3.org/2000/svg" xmlns="http://www.w3.org/2000/svg" xmlns:sodipodi="http://sodipodi.sourceforge.net/DTD/sodipodi-0.dtd" xmlns:inkscape="http://www.inkscape.org/namespaces/inkscape" sodipodi:docname="JCF-Logo.svg" inkscape:version="0.91 r13725" version="1.1" id="svg2" viewBox="0 0 830 436.66667" height="1048pt" width="1992pt" inkscape:export-filename="D:\Vereine\JCF\Logo\JCF-Logo.gif" inkscape:export-xdpi="10.84" inkscape:export-ydpi="10.84">
  <metadata id="metadata13">
    <rdf:RDF>
      <cc:Work rdf:about="">
        <dc:format>image/svg+xml</dc:format>
        <dc:type rdf:resource="http://purl.org/dc/dcmitype/StillImage"/>
        <dc:title/>
      </cc:Work>
    </rdf:RDF>
  </metadata>
  <sodipodi:namedview inkscape:current-layer="g4977" inkscape:window-maximized="1" inkscape:window-y="-8" inkscape:window-x="-8" inkscape:cy="537.1194" inkscape:cx="1353.0202" inkscape:zoom="0.34955844" showgrid="false" id="namedview11" inkscape:window-height="1057" inkscape:window-width="1920" inkscape:pageshadow="2" inkscape:pageopacity="0" guidetolerance="10" gridtolerance="10" objecttolerance="10" borderopacity="1" bordercolor="#666666" pagecolor="#ffffff" units="pt"/>
  <defs id="defs4">
    <style id="style6">
      .cls-1 {
        font-size: 95.987px;
        fill: #69ad39;
        font-family: Optima;
        font-weight: 500;
      }
    </style>
  </defs>
  <path inkscape:connector-curvature="0" id="path4154" style="fill:#58ab3f;fill-opacity:1;fill-rule:evenodd;stroke:none" d="m 437.65842,226.81415 c -4.98501,0 -9.98541,-0.53892 -15.11015,-1.62829 l -1.0755,-0.23542 -0.88523,-0.20767 c -2.92726,-0.85655 -5.75985,-1.83637 -8.5911,-3.36898 l -3.14863,-1.63107 -4.99863,-3.13492 c -2.07211,-1.31125 -4.13021,-3.16267 -6.31272,-5.01411 l -0.7735,-0.64737 -0.85648,-0.85792 -0.44224,-0.56498 -0.53892,-0.53892 -0.33125,-0.42879 -0.85547,-0.87019 -0.66337,-0.77349 -0.75919,-0.9662 -0.53893,-0.53892 -0.33126,-0.77349 -1.20127,-1.52035 c -1.07726,-1.84991 -1.96107,-3.47997 -2.9423,-5.32997 l -0.4145,-0.6499 -1.09088,-2.61097 -0.12443,-0.64737 -0.3178,-0.55407 -0.12444,-0.53809 -0.20683,-0.53892 -0.11098,-0.44223 -0.20682,-0.20683 -0.12443,-0.23541 0,-0.64822 -0.53977,-1.31225 -0.1093,-0.64991 -0.0983,-0.20682 -0.10931,-0.64823 -0.22029,-0.33126 -0.11097,-0.6499 -0.11098,-0.33126 -0.0958,-0.75919 -0.12444,-0.33127 -0.11097,-0.6499 -0.0967,-0.20683 -0.10931,-0.7735 -0.11098,-0.2085 -0.0967,-0.86876 -0.12443,-0.22195 -0.10931,-0.9799 -0.0976,-0.77434 -0.11098,-0.64822 -0.12444,-0.74575 -0.0967,-1.42197 -0.10931,-1.96208 -0.20683,-0.44223 0.0958,-0.52379 0,-3.05304 0.11099,-1.96107 0.53892,-6.07823 0.23373,-0.97991 0.74576,-3.38404 0.55153,-1.85176 0.0983,-0.64739 0.23373,-0.7592 0.31781,-0.6499 0,-0.4414 1.4097,-3.79879 0.44139,-0.88422 c 0.86917,-2.27811 1.94744,-4.44727 3.8125,-6.72429 l 0.33125,-0.12611 2.16781,-3.13501 1.18789,-1.09088 0.64991,-0.56666 1.7407,-1.72708 0.97982,-0.75921 0.23373,-0.22028 3.6741,-3.16266 1.86514,-1.39566 2.94087,-2.18134 c 1.06458,-0.66336 2.04582,-1.31368 3.13636,-1.96073 l 0.66251,-0.44224 c 2.18278,-1.18925 4.35025,-2.27978 6.51939,-3.26104 l 0.55238,-0.0967 2.72153,-0.97982 0.4271,-0.11097 0.44224,-0.22028 0.53892,-0.11099 0.44225,-0.11098 0.44055,-0.0967 0.53892,-0.12358 0.42794,-0.11098 0.6642,-0.0958 0.4145,-0.11182 0.33125,-0.10931 0.64991,-0.0967 0.55153,-0.12444 0.53809,-0.11097 0.98091,-0.0958 0.87051,-0.10931 0.64991,-0.12612 0.8828,-0.0958 0.85655,-0.11097 1.31225,-0.11098 0.96621,-0.0976 1.10559,-0.12274 0.53808,-0.11098 1.62997,0 0.64991,-0.0967 2.07036,0 1.30006,-0.10931 1.75297,0 3.57708,0.10931 2.07314,0.2085 1.72565,0 5.3314,1.20128 1.31091,0.22195 0.76088,0.20684 1.42155,0.66251 0.64991,0.11098 2.61096,0.97982 0.66252,0.0967 0.85682,0.31781 0.64822,0.12443 0.98125,0.20767 0.64906,0.33126 1.62964,0.31781 1.10424,0.56666 1.7407,0.64906 0.42879,0.31781 2.27988,1.51899 1.2972,1.21657 0.34639,0.41366 c -1.53396,3.2607 -3.60575,6.42337 -5.65021,9.69635 l -0.66252,0.10931 -0.55238,-0.33126 -3.35528,-2.72026 -1.42298,-1.29855 -3.16268,-2.51386 -0.85648,-0.66252 -2.07179,-1.29854 -2.61088,-1.519 -3.25969,-1.5337 -0.86875,-0.41366 -3.49511,-1.21531 -0.41449,0 -2.51243,-0.53892 c -2.72195,-0.64906 -5.22218,-0.64906 -7.722,-0.75921 l -2.38953,0.11098 -0.77348,0.10931 -1.50529,0.0967 -0.4414,0.12359 -0.3321,0.11182 -0.44056,0.0958 -0.53892,0.11099 -0.64906,0.20682 -0.64991,0.12443 -0.66251,0.20767 -0.64991,0.23373 -3.36932,1.39457 -0.53894,0.11097 -2.1688,1.1056 -0.55154,0.44223 -1.42197,0.85657 c -2.2798,1.42189 -4.33797,2.81754 -6.61776,5.22076 l -0.44055,0.64821 -0.53892,0.44225 c -2.51387,2.50023 -4.14392,5.01376 -5.6625,7.60959 l -0.6499,1.07718 -1.42197,2.9434 -2.07171,5.77213 -0.0967,0.53892 -0.22028,1.09055 -0.22195,0.76087 -0.64823,3.03791 -0.44223,2.72027 c -0.31865,2.18277 -0.64907,4.35157 -0.64907,6.42193 l -0.20766,2.29351 0,0.96619 0.11098,2.16882 0,0.66335 0.0967,2.38918 0.10931,1.75297 0.12444,0.96755 0.0958,0.87018 0.11182,0.8569 0.10931,0.56666 0.0967,0.75921 0.10931,0.64822 0.12611,0.42878 0.0958,0.64907 0.11098,0.23541 0.11097,0.85547 0.0958,0.66336 0.12443,0.3178 0.11098,0.4414 0.0976,0.53893 0.10931,0.20682 0.12443,0.56666 0.20767,0.64907 0.10931,0.53893 0.0967,0.20682 0.12443,0.55238 0.20682,0.22196 0.11098,0.20682 0,0.55322 0.11099,0.20682 0.22028,0.66252 0.11097,0.44224 0.20682,0.6499 0.22113,0.44225 0.10931,0.41448 0.77434,1.53262 0.0841,0.53809 1.42332,2.81897 0.53809,0.6625 0.55322,1.20162 0.42878,0.53892 0.11098,0.44224 1.42331,2.05674 0.64739,0.76088 1.42331,1.86371 0.0967,0.20683 0.77433,0.77433 1.62864,1.94735 0.64822,0.42796 c 0.8579,0.88422 1.96249,2.07179 2.92826,2.61087 1.63007,1.42198 3.2597,2.38951 4.90438,3.49368 l 3.48006,1.74079 c 1.72565,0.64822 3.5907,1.2835 5.31635,1.71303 3.70286,0.8828 6.96112,1.21381 10.4559,1.21381 l 0.98124,0 1.73927,-0.12275 0.53892,-0.11098 0.77434,0 0.53809,-0.0967 0.52547,-0.11098 1.10458,-0.12275 0.64823,-0.0967 0.44223,-0.11098 0.64991,-0.11098 0.64907,-0.0958 0.33125,-0.12443 0.41449,-0.10931 0.23542,-0.0967 0.86875,-0.11098 0.96754,-0.33126 0.44223,-0.0967 0.4414,-0.0967 0.64991,-0.33126 0.66252,-0.11098 2.04446,-0.87019 0.56583,-0.1093 1.29863,-0.6499 0.53892,-0.10931 5.12332,-2.73557 c 1.62972,-0.98091 3.25935,-1.83638 4.88933,-2.4862 l 0.74743,-0.22028 2.18109,-0.75921 0.42878,-0.11097 0.64822,-0.0976 0.55322,-0.12275 0.75921,0 -0.0967,1.18756 -0.23541,0.97983 -0.20514,0.56666 -0.3321,1.72708 -0.20767,0.75921 -0.55154,2.0717 -0.22195,0.7735 -0.31613,1.28492 -0.6642,1.39431 -0.42794,0.23374 -0.6642,0.0976 -0.64739,0.33127 -0.5406,0.11097 -0.44055,0.11098 -0.20683,0.0958 -0.53892,0.12611 -0.23541,0.10931 -0.52548,0.0976 -0.33125,0.10931 -0.53809,0.12443 -0.44224,0.20767 -0.53892,0.11098 -0.31781,0.0958 -0.56667,0.11097 -0.31781,0.12444 -0.53892,0.0967 -0.44224,0.10931 -0.33125,0.11097 -0.44225,0.0958 -0.31779,0.12612 -0.42879,0.10931 -0.4414,0.0967 -0.3178,0.11099 -0.4414,0.12359 -0.7592,0.0967 -0.64991,0.22195 -0.44056,0.0958 -0.44139,0.12443 -0.53892,0.10931 -0.31781,0.0976 -0.7735,0.11098 -0.41449,0.11098 -0.56667,0.0967 -0.3178,0.12359 -0.87019,0.11182 -0.31781,0.0958 -0.53892,0.11099 -0.44223,0.12274 -0.44056,0.0976 -0.98124,0.11097 -0.4414,0.11098 -0.98125,0.0958 -0.96611,0.12444 -0.87161,0.11097 -0.53808,0.10931 -0.64991,0.0976 -1.53262,0.12443 -1.51898,0.11098 -2.18244,0 -0.33126,0.0958 -2.37547,0.11098 -0.23541,0"/>
  <path inkscape:connector-curvature="0" id="path4156" style="fill:#58ab3f;fill-opacity:1;fill-rule:evenodd;stroke:none" d="m 496.91244,119.46746 56.80003,0 c 0,2.35908 -0.13367,4.10364 -0.34891,5.17519 0.21524,0.75163 0.34891,2.27988 0.34891,4.6403 -6.48886,-1.47519 -19.17554,-2.22624 -38.00215,-2.22624 l -4.66477,0 0,40.49534 23.1698,0 c 1.34243,0 2.89707,-0.0505 4.6662,-0.13453 1.77079,-0.10678 3.56757,-0.21355 5.419,-0.37497 1.84899,-0.16142 3.86184,-0.29594 6.03352,-0.42963 -0.18749,1.04674 -0.32201,1.90473 -0.40272,2.57524 -0.0841,0.67093 -0.16143,1.2877 -0.2682,1.90356 0.10766,0.40187 0.18748,0.93987 0.2682,1.66402 0.0841,0.72389 0.21523,1.63527 0.40272,2.70791 -2.46729,-0.16143 -4.71983,-0.32201 -6.75724,-0.51034 -2.03883,-0.15975 -3.72909,-0.29427 -5.04277,-0.37498 -1.341,-0.0841 -2.76264,-0.10679 -4.31871,-0.10679 l -23.1698,0 0,55.32526 c -1.90507,-0.61627 -4.10399,-0.93743 -6.59716,-0.93743 -2.62879,0 -5.1234,0.322 -7.53737,0.93886 l 10e-4,-110.33137"/>
  <path inkscape:connector-curvature="0" id="path4160" style="fill:#58ab3f;fill-opacity:1;fill-rule:evenodd;stroke:none" d="m 423.21768,324.11557 -10.64918,-0.10931 -5.44079,-0.12613 c -10.12371,-0.31612 -20.23346,-1.29728 -30.34598,-2.69033 l -13.26822,-2.29484 -1.74348,-0.34723 -1.40935,-0.3136 -0.31613,-0.22449 -2.07313,-0.20514 -0.53809,-0.23541 -1.97434,-0.31781 -2.50168,-0.53892 -3.05152,-0.87035 -0.74827,-0.11098 -0.31445,-0.10931 -0.88531,-0.2228 -0.97982,-0.20683 -0.97839,-0.31444 -2.72194,-0.56835 -0.97982,-0.41281 -1.39708,-0.23289 -2.19472,-0.65411 -0.85546,-0.20682 -1.31091,-0.44056 -0.65158,-0.0958 -0.44224,-0.23372 -3.46779,-0.98116 -6.20158,-1.94997 -0.7592,-0.22195 -10.34516,-3.69883 0,-0.10931 -3.46492,-1.31503 -3.25793,-1.18916 -1.10845,-0.53472 -1.62864,-0.64991 -4.88933,-2.07179 -2.72161,-1.09063 -1.62853,-0.85664 -0.44225,0 -3.15148,-1.42315 -1.08769,-0.6499 -4.03008,-1.84873 -2.37967,-1.20422 -5.66106,-3.03799 -0.44645,0 -5.74446,-3.15948 -7.73143,-4.55833 -4.5748,-2.73665 c -2.27709,-1.50529 -4.55555,-2.70682 -6.834,-4.35016 l -3.49334,-2.49881 -1.07969,-0.52379 -1.32613,-1.10458 -4.55546,-3.26214 -11.53307,-8.48002 -6.74077,-5.64744 -0.22027,-0.2371 -1.19051,-0.97982 -4.6773,-4.44726 -0.87438,-0.53892 -0.75836,-0.8828 -0.33294,-0.74575 10.66263,0.0958 78.73208,-0.0673 0,7.95884 -29.0366,0 0.22196,0.22195 0,0.64571 0.32958,0.65159 0.6499,0.88422 0.87018,0.85648 3.90817,3.69999 0.11098,0.22028 1.51891,1.63006 0.4456,0.31865 3.25692,2.73665 c 3.70143,3.36656 7.29356,6.31131 11.09091,8.68392 l 3.49377,2.72338 5.09599,3.69865 3.70286,2.4059 4.79087,2.92836 0.5364,0.32957 2.81898,1.52034 1.10702,0.64906 2.27844,1.2012 2.38775,1.18656 1.31368,0.77433 12.18045,5.75825 c 7.73563,3.16519 15.23593,5.65022 23.05109,8.05183 l 2.61231,0.74744 0.7735,0.10931 0.98225,0.33294 0.64738,0 0.98124,0.44055 0.85514,0.21187 2.94223,0.77013 2.07179,0.44224 1.40793,0.31781 3.15006,0.66336 1.53261,0.31612 6.40832,1.19051 11.53307,1.4218 7.94094,0.6457 1.83772,0.0983 0.23289,0.12611 12.1696,-0.22448 0.54061,0.0983 7.29356,-0.0983 1.29442,-0.10843 1.63385,-0.10679 1.29476,-0.10086 0.66504,-0.12443 0.75836,-0.10931 0.77433,-0.0958 1.51757,-0.11266 1.7407,-0.12611 0.64822,-0.0942 0.20851,-0.11267 0.98268,-0.10931 0.44055,-0.0983 0.6499,-0.10844 0.42543,-0.1219 0.65159,-0.1001 0.44055,-0.11098 0.77433,-0.10679 0.85404,-0.10086 0.88523,-0.12022 0.86884,-0.11099 0.44477,-0.0967 0.41616,-0.11099 0.8796,-0.12444 0.65159,-0.0976 0.74408,-0.11098 0.6625,-0.11098 0.75921,-0.0958 0.87295,-0.12611 0.5507,-0.10843 0.54061,-0.0983 0.64738,-0.10931 0.33126,-0.11266 0.85656,-0.0942 0.55406,-0.12611 0.77182,-0.11266 0.42877,-0.0942 0.75921,-0.10931 0.54061,-0.12611 0.44055,-0.0958 0.7592,-0.11098 0.33294,-0.10931 0.64822,-0.0976 0.53893,-0.12443 0.43971,-0.11098 0.43131,-0.10843 0.64739,0 0.23541,-0.0983 0.6499,-0.3321 0.53893,-0.11266 0.5406,-0.10843 0.43804,-0.0967 0.31864,-0.12023 0.64823,-0.21187 0.66503,-0.10843 0.96477,-0.33293 0.44224,-0.10844 0.66335,-0.22449 0.64907,-0.10931 1.62963,-0.64821 0.64991,-0.0983 0.7735,-0.32874 0.41364,-0.11098 0.33126,-0.10931 0.55574,-0.0976 0.97847,-0.44308 0.41618,-0.12191 0.56499,-0.10009 1.07826,-0.4271 0.64907,-0.1236 0.44224,-0.20934 0.64822,-0.20682 0.55153,-0.12444 1.40827,-0.53808 0.55406,-0.22196 0.97838,-0.33294 0.54229,-0.0967 0.5238,-0.31359 0.44223,-0.12696 0.4414,-0.20683 0.42711,-0.10931 8.92361,-3.82611 0.55405,-0.0983 2.05532,-0.88262 0.55322,-0.41617 0.5406,-0.10931 c 1.29855,-0.77013 2.511,-0.97982 3.80963,-1.85287 l 0.64906,-0.22027 c 1.62964,-0.97973 3.03757,-1.4081 4.66621,-2.49881 l 0.55573,-0.20599 3.25936,-1.62727 0.53976,-0.44477 5.65828,-3.16368 4.03664,-2.61088 2.16916,-1.40549 0.31275,-0.11182 0.64991,-0.54229 4.80845,-3.2554 0.31865,-0.11098 1.9624,-1.63006 0.53893,-0.22028 c 2.2771,-1.7407 4.5569,-3.49646 6.84905,-5.23581 l 4.99863,-4.24052 0.55154,-0.64906 0.76087,-0.53809 0.64907,-0.65158 1.42332,-1.21389 0.52295,-0.53892 1.42718,-1.50671 0.44055,-0.23374 0.53809,-0.64906 1.08768,-1.07827 2.61231,-2.92684 1.83815,-2.2935 -0.20514,-0.2186 0,-0.22195 -82.56642,0.0958 0,-0.0958 -90.6181,0.18329 0,-8.11086 64.96731,-0.0588 0,0.0958 108.89015,-0.0958 0,0.0958 60.13573,-0.0958 -1.08945,1.52311 -0.66588,0.64486 -1.39422,1.42164 -2.60988,2.27978 -1.2016,1.07971 -2.50126,1.96913 -7.82954,6.4111 -1.20151,0.85656 -0.33295,0.44392 -3.80089,2.94188 -3.36656,2.60988 -2.50124,1.94703 -3.27197,2.51528 -0.33294,0.0942 -0.31529,0.33127 -1.62895,1.20018 -2.5047,1.8542 -1.2962,0.86876 -0.77433,0.53892 -1.73759,1.18655 -6.29861,4.03387 -1.53438,0.64991 -1.62896,1.10415 c -0.65075,0.52548 -1.312,0.96343 -1.96182,1.29864 l -0.6499,0.42878 -1.7407,0.87019 -0.53641,0.44391 -7.50054,4.01781 -0.56668,0.44055 c -4.98921,2.48637 -9.98674,5.096 -14.99908,7.40446 l -0.64991,0.20514 c -1.95829,0.98116 -3.9053,1.83915 -5.87158,2.72186 l -0.64906,0.20514 -0.54985,0.33631 -0.53641,0.10843 c -1.63393,0.87026 -3.38547,1.3109 -5.01376,2.16754 l -0.65159,0.22197 -1.72565,0.7592 -0.55321,0.12443 -1.09189,0.5238 -0.53556,0.12442 -1.4272,0.5364 -0.53807,0.20767 -0.64739,0.23709 -3.05295,1.0934 -0.42626,0.0916 -1.41113,0.55742 -0.44055,0.0933 -0.53808,0.23709 -0.44308,0.0942 -0.77434,0.31781 -0.41366,0.11518 -0.44223,0.12359 -1.18892,0.41281 -0.44475,0.12191 -0.76929,0.3178 -0.53892,0.12696 -0.53894,0.20934 -0.22027,0.10679 -0.53809,0.0983 -0.33293,0.23543 -0.65159,0.0958 -0.77014,0.3178 -0.6499,0.12443 -0.31613,0.10931 -0.42877,0.0983 -0.44308,0.10843 -1.519,0.53892 -0.44224,0.12359 -0.3178,0.11099 -0.54986,0.0958 -1.20438,0.44476 -0.52548,0.10931 -0.33125,0.10009 -0.65327,0.10843 -1.21102,0.44223 -0.41618,0.0958 -0.44223,0.12359 -0.44056,0.1135 -0.3321,0.0958 -0.41281,0.10843 -0.44475,0.12695 -0.65832,0.20514 -0.4456,0.10931 -0.31781,0.0976 -0.5364,0.10931 -0.53808,0.12611 -0.3321,0.0976 -0.6499,0.1093 -1.09055,0.44309 -0.64991,0.0976 -0.43971,0.11098 -0.54061,0.12191 -0.44223,0.0983 -0.75836,0.10931 -0.66504,0.20767 -0.41281,0.12443 -0.44308,0.1135 -0.44056,0.0933 -0.53808,0.11097 -0.53893,0.10931 -0.33125,0.0976 -0.76089,0.12443 -0.3321,0.11098 -0.44055,0.0958 -0.4145,0.10931 -0.55237,0.12611 -0.53892,0.0983 -0.53809,0.10843 -0.44223,0.11098 -0.7735,0.0942 -0.44308,0.12696 -0.31613,0.10931 -0.74406,0.11098 -0.32958,0.0958 -0.77854,0.12443 -0.44055,0.11098 -0.4145,0.0967 -0.8828,0.10678 -0.42794,0.1135 -0.86917,0.0967 -0.66504,0.12611 -0.74407,0.10931 -0.44475,0.0976 -0.53641,0.11098 -0.6499,0.12443 -0.64738,0.0942 -0.67849,0.11351 -0.74575,0.10678 -0.76089,0.0983 -0.43887,0.12359 -0.87187,0.11266 -0.97847,0.0967 -0.6499,0.10843 -0.85792,0.12696 -0.88422,0.0757 -0.87017,0.12611 -0.31613,0.10678 -0.66671,0.10009 -0.10931,-0.20682 -0.53809,0.31612 -0.75836,0.1236 -0.76172,0.10009 -1.19875,0.10931 -0.97983,0.10843 -0.53892,0.10009 -1.20438,0.12443 -0.75921,0.11182 -1.53126,0.0942 -1.06322,0.10931 -1.42155,0.12443 -0.53977,0.0983 -1.4244,0.10931 -1.73928,0.10931 -0.33378,0.0983 -1.51613,0.10931 -1.85008,0.12444 -1.96107,0.0976 -1.07541,0.10931 -0.55658,0 -1.29863,0.11098 -0.7592,0 -0.66084,0.0958 -1.31368,0.12611 -3.02285,0 -1.63107,0.10931 -3.70142,0"/>
  <path inkscape:connector-curvature="0" id="path4162" style="fill:#58ab3f;fill-opacity:1;fill-rule:evenodd;stroke:none" d="m 357.85245,120.04623 0,106.84602 c 0,7.30054 -1.54632,13.72534 -4.6704,19.30267 -3.12551,5.54764 -7.41825,9.84037 -12.87828,12.90703 -5.43128,3.03655 -11.44688,4.64164 -18.04539,4.73068 l -1.37253,-4.84839 c 9.13968,-0.49688 15.00883,-3.61945 17.6362,-9.40243 2.62878,-5.78128 3.94246,-13.22828 3.94246,-22.33929 l 0,-98.84093 c -14.42981,0.25475 -24.50979,1.03723 -30.20659,2.33343 0,-2.56994 0.1463,-4.23531 0.38086,-5.05228 -0.23373,-1.16864 -0.38086,-3.06665 -0.38086,-5.63651 l 45.59453,0"/>
  <g id="g4977" transform="translate(-47.859701,1.2234483)">
    <path inkscape:connector-curvature="0" id="path4193" d="m 872.45431,179.1705 -45.51428,-11.29429 -103.58714,-0.0843 -53.18429,-16.77286 -1.77,-60.685718 4.88857,-7.75429 -29.33143,-0.33714 -181.13,-77.9642842" style="fill:none;fill-rule:evenodd;stroke:#58ab3f;stroke-width:10;stroke-linecap:round;stroke-linejoin:round;stroke-miterlimit:4;stroke-dasharray:none;stroke-opacity:1"/>
    <path style="fill:none;fill-rule:evenodd;stroke:#58ab3f;stroke-width:10;stroke-linecap:round;stroke-linejoin:round;stroke-miterlimit:4;stroke-dasharray:none;stroke-opacity:1" d="m 53.265091,179.17049 45.51428,-11.29429 103.587139,-0.0843 53.18429,-16.77286 1.77,-60.685709 -4.88857,-7.75429 29.33143,-0.33714 181.13,-77.9642832" id="path4195" inkscape:connector-curvature="0"/>
  </g>
  <g style="font-style:normal;font-weight:normal;font-size:85.09371948px;line-height:500%;font-family:sans-serif;text-align:center;letter-spacing:0px;word-spacing:0px;text-anchor:middle;fill:#58ab3f;fill-opacity:1;stroke:none;stroke-width:1px;stroke-linecap:butt;stroke-linejoin:miter;stroke-opacity:1" id="text4142">
    <path d="m 195.64408,411.55149 0,-27.38123 q 0,-6.1078 -0.4986,-10.26277 -0.4986,-4.15497 -1.78664,-8.60078 l 7.22965,0 0,0 6.85569,0 q 10.09657,0 15.99662,4.61201 5.94161,4.61202 5.94161,12.4649 0,7.14655 -6.98035,11.71701 -1.37114,0.91409 -2.99157,1.66199 l 0,0 q 3.19932,1.12184 5.6923,2.90847 7.22964,5.06906 7.22964,13.75294 0,8.64233 -7.10499,13.33745 -7.06344,4.65356 -20.15159,4.65356 l -4.48736,0 0,0 -7.1881,0 q 1.24649,-4.32117 1.74509,-8.47613 0.4986,-4.11342 0.4986,-10.38742 z m 9.88882,-39.92923 0,21.93822 0,0 0.41549,0 q 5.98316,0 9.47333,-3.11622 3.53172,-3.11623 3.53172,-8.43458 0,-4.77822 -3.44862,-7.56204 -3.44863,-2.82538 -9.30713,-2.82538 l -0.66479,0 0,0 z m 0,26.63334 0,25.84389 0.12465,0 q 7.47894,0 11.84165,-3.32397 4.40427,-3.32398 4.40427,-9.01628 0,-6.1909 -4.52892,-9.84727 -4.40426,-3.53172 -11.84165,-3.65637 l 0,0 z" style="font-style:normal;font-variant:normal;font-weight:normal;font-stretch:normal;font-family:'Albertus Medium';-inkscape-font-specification:'Albertus Medium, ';fill:#58ab3f;fill-opacity:1" id="path4147"/>
    <path d="m 247.41496,411.55149 22.27062,-47.53282 0,0 22.31217,47.53282 q 3.86412,8.18528 6.31555,12.34025 2.45143,4.15497 4.81976,6.5233 l -8.06063,0 -8.06064,0 q 0.4986,-1.95284 -0.49859,-6.06625 -0.95564,-4.15497 -3.03313,-9.01628 l -2.16058,-5.02751 0,0 -24.09881,0 0,0 -0.29085,0.95564 q -2.49298,5.77541 -3.82257,11.34306 -1.32958,5.56766 -0.74789,7.81134 l -8.14373,0 -8.18529,0 q 2.65918,-2.65918 5.15216,-6.81415 2.49298,-4.15496 6.23245,-12.0494 z m 21.85513,-29.20942 -8.43459,19.653 0,0 16.91072,0 0,0 -8.47613,-19.653 0,0 0,0 z" style="font-style:normal;font-variant:normal;font-weight:normal;font-stretch:normal;font-family:'Albertus Medium';-inkscape-font-specification:'Albertus Medium, ';fill:#58ab3f;fill-opacity:1" id="path4149"/>
    <path d="m 326.35933,400.45773 0,0 -9.09938,-16.28747 q -5.11061,-8.97473 -7.85289,-13.08815 -2.74228,-4.15496 -4.65356,-5.7754 l 7.89444,0 7.93598,0 q -0.2493,1.41269 0.20775,3.49017 0.45705,2.03594 1.45424,4.03032 l 9.39022,18.36495 0,0 9.93038,-18.36495 q 1.03874,-1.86974 1.57888,-4.03032 0.5817,-2.20213 0.37395,-3.49017 l 7.10499,0 7.105,0 q -2.82538,2.49298 -5.65076,6.64795 -2.78383,4.15496 -7.02189,12.2156 l -8.80853,16.57832 0,0 0,10.80291 q 0,6.14935 0.49859,10.30432 0.4986,4.15496 1.78664,8.55923 l -7.18809,0 -7.22965,0 q 1.24649,-4.32117 1.74509,-8.47613 0.4986,-4.15497 0.4986,-10.38742 l 0,-11.09376 z" style="font-style:normal;font-variant:normal;font-weight:normal;font-stretch:normal;font-family:'Albertus Medium';-inkscape-font-specification:'Albertus Medium, ';fill:#58ab3f;fill-opacity:1" id="path4151"/>
    <path d="m 367.5766,411.55149 0,-27.38123 q 0,-6.1078 -0.49859,-10.26277 -0.4986,-4.15497 -1.78664,-8.60078 l 7.22964,0 0,0 4.90286,0 q 12.4649,0 19.19595,5.02751 6.73105,5.02751 6.73105,14.29309 0,8.30993 -7.47894,13.37899 -2.36834,1.53734 -5.15216,2.74228 l 0,0 4.69511,7.06344 q 3.36552,4.94441 7.43739,9.93037 4.07187,4.94441 11.09376,12.67265 l -11.59236,0 q -5.02751,-4.23807 -11.75855,-12.17405 -6.6895,-7.93599 -11.42616,-15.16563 l -1.70354,-2.61763 0,0 0,11.09376 q 0,6.14935 0.4986,10.30432 0.49859,4.15496 1.78663,8.55923 l -7.18809,0 -7.22964,0 q 1.24649,-4.32117 1.74509,-8.47613 0.49859,-4.15497 0.49859,-10.38742 z m 9.88882,-13.50364 0,0 q 6.4402,-0.37395 10.47052,-3.73947 4.65356,-3.82257 4.65356,-10.05502 0,-5.69231 -4.40426,-9.18248 -4.11342,-3.19932 -10.71982,-3.49017 l 0,0 0,26.46714 z" style="font-style:normal;font-variant:normal;font-weight:normal;font-stretch:normal;font-family:'Albertus Medium';-inkscape-font-specification:'Albertus Medium, ';fill:#58ab3f;fill-opacity:1" id="path4153"/>
    <path d="m 418.8489,430.41504 q 1.24649,-4.32117 1.74508,-8.47613 0.4986,-4.15497 0.4986,-10.38742 l 0,-27.38123 q 0,-6.1078 -0.4986,-10.26277 -0.49859,-4.15497 -1.78663,-8.60078 l 12.17405,0 0,0 23.76641,0 0,0 -2.49298,5.31836 -2.53453,5.3599 q -3.73947,-1.99438 -7.35429,-2.78382 -3.61482,-0.831 -8.72543,-0.831 l -2.65918,0 0,0 0,21.31498 0,0 21.48118,0 -2.99158,5.27681 -2.99158,5.27681 q -3.15777,-1.91129 -6.56484,-2.70073 -3.40708,-0.78944 -8.55923,-0.78944 l -0.37395,0 0,0 0,22.51992 0,0 q 8.80853,-0.2493 14.50083,-1.28804 7.56204,-1.37114 13.42055,-4.69512 l -2.70073,6.56485 -2.74228,6.56485 0,0 -22.47837,0 0,0 -12.1325,0 z" style="font-style:normal;font-variant:normal;font-weight:normal;font-stretch:normal;font-family:'Albertus Medium';-inkscape-font-specification:'Albertus Medium, ';fill:#58ab3f;fill-opacity:1" id="path4155"/>
    <path d="m 476.97688,384.17026 0,16.74451 q -0.0415,11.42616 3.90567,16.99382 3.94722,5.56765 12.00785,5.56765 7.39585,0 11.05222,-4.44581 3.69792,-4.44581 3.69792,-13.33744 l 0,0 0,-21.52273 q 0,-6.1078 -0.4986,-10.26277 -0.4986,-4.15497 -1.78663,-8.60078 l 7.18809,0 7.22964,0 q -1.24649,4.36271 -1.74509,8.51768 -0.49859,4.15497 -0.49859,10.34587 l 0,27.38123 q 0,6.14935 0.49859,10.30432 0.4986,4.15496 1.78664,8.55923 l -5.56766,0 -5.6092,0 0,0 0,-7.14654 0,0 0,0 -1.70354,1.41268 q -8.64233,6.7726 -18.4065,6.7726 -10.51207,0 -15.99662,-7.18809 -5.44301,-7.22964 -5.44301,-21.10723 l 0,-18.9882 q 0,-6.1078 -0.49859,-10.26277 -0.4986,-4.15497 -1.78664,-8.60078 l 7.18809,0 7.22964,0 q -1.24649,4.36271 -1.74508,8.51768 -0.4986,4.11342 -0.4986,10.34587 z" style="font-style:normal;font-variant:normal;font-weight:normal;font-stretch:normal;font-family:'Albertus Medium';-inkscape-font-specification:'Albertus Medium, ';fill:#58ab3f;fill-opacity:1" id="path4157"/>
    <path d="m 549.06555,411.55149 0,-39.22289 0,0 q -5.15216,0.20775 -8.85008,0.7479 -7.18809,1.03874 -11.84166,3.49017 l 1.91129,-5.60921 1.91128,-5.65075 0,0 21.81358,0 0,0 25.05445,0 0,0 -1.53734,5.35991 -1.57889,5.3599 q -5.73385,-2.16058 -9.76417,-3.07467 -3.53172,-0.7479 -7.22964,-0.87254 l 0,0 0,39.47218 q 0,5.65075 0.54015,9.80572 0.58169,4.15497 1.99438,9.05783 l -7.43739,0 -7.47894,0 q 1.41269,-4.77821 1.95283,-8.93318 0.54015,-4.15497 0.54015,-9.93037 z" style="font-style:normal;font-variant:normal;font-weight:normal;font-stretch:normal;font-family:'Albertus Medium';-inkscape-font-specification:'Albertus Medium, ';fill:#58ab3f;fill-opacity:1" id="path4159"/>
    <path d="m 588.33,411.55149 0,-27.38123 q 0,-6.1078 -0.49859,-10.22122 -0.4986,-4.15497 -1.78664,-8.64233 l 7.1881,0 7.22964,0 q -1.24649,4.36271 -1.74509,8.51768 -0.49859,4.15497 -0.49859,10.34587 l 0,8.89163 0,0 27.67207,0 0,0 0,-8.89163 q 0,-6.1078 -0.49859,-10.26277 -0.4986,-4.15497 -1.78664,-8.60078 l 7.18809,0 7.22965,0 q -1.24649,4.36271 -1.74509,8.51768 -0.4986,4.15497 -0.4986,10.34587 l 0,27.38123 q 0,6.14935 0.4986,10.30432 0.4986,4.15496 1.78664,8.55923 l -7.1881,0 -7.22964,0 q 1.24649,-4.32117 1.74509,-8.47613 0.49859,-4.15497 0.49859,-10.38742 l 0,-10.17967 0,0 -27.67207,0 0,0 0,10.17967 q 0,6.14935 0.49859,10.30432 0.4986,4.15496 1.78664,8.55923 l -7.1881,0 -7.22964,0 q 1.24649,-4.32117 1.74509,-8.47613 0.49859,-4.15497 0.49859,-10.38742 z" style="font-style:normal;font-variant:normal;font-weight:normal;font-stretch:normal;font-family:'Albertus Medium';-inkscape-font-specification:'Albertus Medium, ';fill:#58ab3f;fill-opacity:1" id="path4161"/>
  </g>
</svg>